<svg width="48" height="48" viewBox="0 0 48 48" fill="none" xmlns="http://www.w3.org/2000/svg">
<path d="M7.632 28.12C7.072 28.12 6.608 27.928 6.24 27.544C5.872 27.152 5.548 26.508 5.268 25.612L3.6 20.308C3.568 20.212 3.552 20.112 3.552 20.008C3.552 19.656 3.8 19.48 4.296 19.48C4.544 19.48 4.732 19.528 4.86 19.624C4.996 19.72 5.096 19.876 5.16 20.092L6.816 25.492C6.968 25.98 7.108 26.332 7.236 26.548C7.364 26.764 7.496 26.872 7.632 26.872C7.768 26.872 7.9 26.764 8.028 26.548C8.156 26.332 8.296 25.98 8.448 25.492L10.104 20.092C10.168 19.876 10.264 19.72 10.392 19.624C10.528 19.528 10.72 19.48 10.968 19.48C11.464 19.48 11.712 19.656 11.712 20.008C11.712 20.112 11.696 20.212 11.664 20.308L9.996 25.612C9.716 26.508 9.392 27.152 9.024 27.544C8.656 27.928 8.192 28.12 7.632 28.12ZM17.8928 28.12C17.1088 28.12 16.3728 27.992 15.6848 27.736C14.9968 27.472 14.4008 27.096 13.8968 26.608C13.7768 26.488 13.7168 26.352 13.7168 26.2C13.7168 26.024 13.7968 25.856 13.9568 25.696C14.0848 25.568 14.2248 25.504 14.3768 25.504C14.5368 25.504 14.7288 25.596 14.9528 25.78C15.3288 26.124 15.7728 26.392 16.2848 26.584C16.8048 26.768 17.3408 26.86 17.8928 26.86C18.4208 26.86 18.8328 26.772 19.1288 26.596C19.4248 26.412 19.5728 26.156 19.5728 25.828C19.5728 25.484 19.4128 25.208 19.0928 25C18.7728 24.784 18.2288 24.592 17.4608 24.424C16.2528 24.16 15.3728 23.812 14.8208 23.38C14.2768 22.948 14.0048 22.392 14.0048 21.712C14.0048 21.28 14.1488 20.896 14.4368 20.56C14.7248 20.216 15.1248 19.952 15.6368 19.768C16.1568 19.576 16.7488 19.48 17.4128 19.48C18.1568 19.48 18.8168 19.604 19.3928 19.852C19.9768 20.092 20.4208 20.432 20.7248 20.872C20.8288 21.04 20.8808 21.184 20.8808 21.304C20.8728 21.504 20.7728 21.676 20.5808 21.82C20.4768 21.892 20.3568 21.928 20.2208 21.928C19.9728 21.928 19.7688 21.832 19.6088 21.64C19.3768 21.36 19.0648 21.14 18.6728 20.98C18.2888 20.82 17.8688 20.74 17.4128 20.74C16.8448 20.74 16.4008 20.828 16.0808 21.004C15.7688 21.172 15.6128 21.408 15.6128 21.712C15.6128 22.016 15.7648 22.268 16.0688 22.468C16.3808 22.66 16.9168 22.844 17.6768 23.02C18.5168 23.22 19.1928 23.448 19.7048 23.704C20.2168 23.952 20.5888 24.248 20.8208 24.592C21.0608 24.936 21.1808 25.348 21.1808 25.828C21.1808 26.284 21.0448 26.688 20.7728 27.04C20.5008 27.384 20.1168 27.652 19.6208 27.844C19.1248 28.028 18.5488 28.12 17.8928 28.12ZM24.3352 28.108C24.0952 28.108 23.9032 28.044 23.7592 27.916C23.6152 27.788 23.5432 27.612 23.5432 27.388V23.188C23.5432 22.028 23.8752 21.12 24.5392 20.464C25.2032 19.808 26.1272 19.48 27.3112 19.48C28.0872 19.48 28.7592 19.628 29.3273 19.924C29.8953 20.22 30.3273 20.648 30.6233 21.208C30.9272 21.768 31.0792 22.428 31.0792 23.188V27.388C31.0792 27.612 31.0072 27.788 30.8632 27.916C30.7192 28.044 30.5272 28.108 30.2873 28.108C30.0472 28.108 29.8512 28.044 29.6992 27.916C29.5552 27.78 29.4832 27.604 29.4832 27.388V25.432H25.1392V27.388C25.1392 27.604 25.0632 27.78 24.9112 27.916C24.7672 28.044 24.5752 28.108 24.3352 28.108ZM29.4832 24.196V23.152C29.4832 22.352 29.2992 21.752 28.9312 21.352C28.5712 20.944 28.0312 20.74 27.3112 20.74C25.8632 20.74 25.1392 21.544 25.1392 23.152V24.196H29.4832ZM34.3609 28.12C34.1209 28.12 33.9289 28.056 33.7849 27.928C33.6409 27.8 33.5689 27.624 33.5689 27.4V22.456C33.5689 21.528 33.8329 20.8 34.3609 20.272C34.8889 19.744 35.6169 19.48 36.5449 19.48C36.9929 19.48 37.4129 19.592 37.8049 19.816C38.2049 20.032 38.5489 20.344 38.8369 20.752C39.1169 20.336 39.4529 20.02 39.8449 19.804C40.2449 19.588 40.6769 19.48 41.1409 19.48C42.0689 19.48 42.7969 19.744 43.3249 20.272C43.8529 20.8 44.1169 21.528 44.1169 22.456V27.4C44.1169 27.616 44.0409 27.792 43.8889 27.928C43.7449 28.056 43.5529 28.12 43.3129 28.12C43.0729 28.12 42.8809 28.056 42.7369 27.928C42.5929 27.8 42.5209 27.624 42.5209 27.4V22.456C42.5209 21.848 42.4089 21.412 42.1849 21.148C41.9609 20.876 41.5929 20.74 41.0809 20.74C40.6169 20.74 40.2569 20.888 40.0009 21.184C39.7529 21.48 39.6289 21.904 39.6289 22.456V27.4C39.6289 27.624 39.5569 27.8 39.4129 27.928C39.2689 28.056 39.0769 28.12 38.8369 28.12C38.5969 28.12 38.4049 28.056 38.2609 27.928C38.1249 27.8 38.0569 27.624 38.0569 27.4V22.456C38.0569 21.92 37.9289 21.5 37.6729 21.196C37.4169 20.892 37.0609 20.74 36.6049 20.74C36.0929 20.74 35.7249 20.876 35.5009 21.148C35.2769 21.412 35.1649 21.848 35.1649 22.456V27.4C35.1649 27.616 35.0889 27.792 34.9369 27.928C34.7929 28.056 34.6009 28.12 34.3609 28.12Z" fill="url(#paint0_linear_407_14)"/>
<path d="M15.0839 33.9221C15.5466 34.1175 15.9785 34.1998 16.2665 34.4569C17.9839 35.948 19.6704 37.4803 21.3467 39.0126C21.6038 39.2491 21.8711 39.5371 21.9843 39.8559C22.1797 40.3803 22.0254 40.874 21.5626 41.2236C20.2155 42.2417 18.858 43.2701 17.4903 44.2676C16.7293 44.8229 15.8963 44.6687 15.2381 44.1442C13.5824 42.8279 11.9576 41.4498 10.3739 40.0307C9.61288 39.352 9.67459 38.6115 10.4047 37.9019C11.5462 36.7913 12.6672 35.6601 13.8395 34.5906C14.1994 34.2923 14.6725 34.1381 15.0839 33.9221Z" fill="url(#paint1_linear_407_14)"/>
<path d="M31.8363 44.6783C31.4867 44.5241 31.0959 44.4315 30.7874 44.2053C29.4916 43.2797 28.2164 42.3233 26.9618 41.3567C26.2008 40.7808 26.17 39.8758 26.8796 39.2382C28.2884 37.9424 29.7282 36.6673 31.1473 35.3921C31.425 35.1453 31.7026 34.8882 31.9803 34.6311C32.7824 33.9112 33.8314 33.9318 34.6027 34.6825C35.7647 35.8137 36.9371 36.9346 38.1094 38.0659C38.5928 38.5389 38.7059 39.1354 38.2946 39.6804C37.9346 40.1535 37.4924 40.5648 37.0399 40.9556C35.8779 41.9634 34.6952 42.9506 33.5126 43.9379C33.0395 44.3287 32.5254 44.6372 31.8363 44.6783Z" fill="url(#paint2_linear_407_14)"/>
<path d="M23.7737 48C22.8996 47.9486 22.2826 47.8972 21.6656 47.8766C20.4932 47.8458 19.6088 47.1773 18.7347 46.5397C18.2205 46.1592 18.2822 45.6965 18.817 45.3263C20.2258 44.3287 21.6347 43.3209 23.0642 42.3542C23.784 41.8606 24.617 41.8092 25.3472 42.2925C26.8486 43.2695 28.3089 44.3185 29.7795 45.3571C30.2422 45.6862 30.2114 46.2518 29.7178 46.6014C28.7408 47.311 27.7124 47.8972 26.4372 47.8972C25.4603 47.8972 24.4833 47.9692 23.7737 48Z" fill="url(#paint3_linear_407_14)"/>
<path d="M8.28612 40.1652C8.81059 40.484 9.30421 40.7102 9.72585 41.0496C10.8468 41.9545 11.9163 42.9006 13.0167 43.8262C13.4177 44.1655 13.8496 44.4741 14.2713 44.8134C14.405 44.9163 14.5695 45.0294 14.6209 45.1734C14.7032 45.4099 14.7032 45.667 14.7443 45.9138C14.5284 45.9035 14.2816 45.9652 14.0862 45.8829C11.5872 44.8237 9.36592 43.3326 7.34001 41.5432C7.04178 41.2758 7.0315 41.0804 7.3503 40.8542C7.62796 40.6485 7.92619 40.4325 8.28612 40.1652Z" fill="url(#paint4_linear_407_14)"/>
<path d="M6.71264 38.6013C6.64065 38.9715 6.1059 39.7736 5.80767 39.8045C5.68426 39.8147 5.49915 39.6913 5.4066 39.5782C4.05942 38.0665 2.89736 36.4211 1.96153 34.6214C1.63245 34.0044 1.33422 33.3668 1.04628 32.7292C0.984574 32.5955 0.984574 32.3076 1.04628 32.2767C1.19025 32.2048 1.41649 32.1842 1.56047 32.2459C1.76614 32.3384 1.96153 32.5133 2.10551 32.6881C3.43211 34.2512 4.75872 35.8144 6.05448 37.3981C6.33214 37.758 6.49668 38.2002 6.71264 38.6013Z" fill="url(#paint5_linear_407_14)"/>
<path d="M40.1656 40.2467C40.5358 40.5141 40.8751 40.7506 41.1837 41.018C41.2248 41.0488 41.1528 41.3059 41.0705 41.3882C39.0138 43.2804 36.6999 44.7921 34.129 45.9028C34.0159 45.9542 33.7896 45.9748 33.7588 45.9234C33.6868 45.8102 33.6456 45.6045 33.7073 45.5017C33.841 45.2549 34.0159 45.0081 34.2318 44.823C35.7847 43.5067 37.3478 42.2006 38.9315 40.9254C39.2606 40.6683 39.6822 40.5038 40.1656 40.2467Z" fill="url(#paint6_linear_407_14)"/>
<path d="M42.5102 39.9377C41.5127 39.2282 41.4819 38.5083 42.3046 37.5519C43.3124 36.3898 44.2996 35.2175 45.2869 34.0348C45.5954 33.6646 45.8627 33.2636 46.161 32.9036C46.4386 32.5745 46.7369 32.266 47.323 32.4409C46.1198 35.2278 44.5876 37.737 42.5102 39.9377Z" fill="url(#paint7_linear_407_14)"/>
<path d="M31.7993 3.21935C32.2929 3.45588 32.8277 3.58957 33.2185 3.90837C34.761 5.1527 36.2625 6.45874 37.7742 7.74422C38.4838 8.35096 38.71 9.37934 37.8462 10.1403C36.6944 11.1379 35.6557 12.2588 34.5656 13.318C33.7121 14.1407 32.6529 14.1921 31.7582 13.39C30.0613 11.868 28.3851 10.3357 26.7191 8.78288C25.9684 8.08358 26.0095 7.20946 26.8117 6.58215C28.056 5.62576 29.3106 4.66937 30.5961 3.75411C30.9149 3.5073 31.3468 3.40446 31.7993 3.21935Z" fill="url(#paint8_linear_407_14)"/>
<path d="M14.8517 13.8528C14.2759 13.9145 13.8645 13.5134 13.4532 13.1226C12.4145 12.1148 11.3758 11.0864 10.3475 10.0683C9.50418 9.24565 9.4939 8.44351 10.4092 7.62081C11.6741 6.49988 12.9801 5.42008 14.2759 4.33C14.8209 3.86723 15.3659 3.34276 16.1269 3.32219C16.5486 3.31191 17.0525 3.36332 17.3816 3.58957C18.7699 4.55624 20.117 5.58462 21.4539 6.613C22.1429 7.14775 22.1532 7.97046 21.4848 8.61833C20.878 9.21479 20.2096 9.74955 19.572 10.3254C18.5848 11.2201 17.6078 12.1354 16.6308 13.0404C16.0035 13.6265 15.5305 13.8528 14.8517 13.8528Z" fill="url(#paint9_linear_407_14)"/>
<path d="M23.9427 6.06795C23.4593 5.8417 22.904 5.66688 22.4309 5.34808C21.1558 4.49453 19.9114 3.57927 18.6568 2.68458C18.0192 2.2321 17.9883 1.70762 18.6362 1.25514C19.5926 0.576408 20.5901 -0.0200509 21.8242 0.000516692C23.6033 0.0210842 25.3824 -0.00976709 27.1512 0.103354C28.1487 0.165057 28.9406 0.833502 29.6707 1.48138C30.0409 1.81046 29.969 2.25266 29.5679 2.54061C28.1076 3.57927 26.637 4.61793 25.1561 5.62574C24.8373 5.8417 24.426 5.89312 23.9427 6.06795Z" fill="url(#paint10_linear_407_14)"/>
<path d="M39.903 7.68251C39.5533 7.51797 39.1625 7.40485 38.8746 7.16832C37.2086 5.82115 35.5735 4.45341 33.9281 3.08567C33.8458 3.02396 33.743 2.95198 33.7224 2.86971C33.6401 2.59204 33.599 2.3041 33.5373 2.02644C33.7841 2.03672 34.0721 1.96473 34.2777 2.05729C36.6224 3.09595 38.7718 4.45341 40.6948 6.15023C40.9108 6.33534 41.2193 6.76726 41.1679 6.82896C40.9211 7.12719 40.5714 7.35343 40.2423 7.58996C40.1703 7.64138 40.0469 7.61053 39.9441 7.61053C39.9235 7.63109 39.9133 7.65166 39.903 7.68251Z" fill="url(#paint11_linear_407_14)"/>
<path d="M46.7724 15.7861C46.6593 15.7039 46.4022 15.5907 46.2377 15.3953C44.8802 13.7911 43.5433 12.1662 42.2064 10.5414C42.011 10.3049 41.867 10.0272 41.7539 9.74955C41.5174 9.15309 41.7642 8.44351 42.3401 8.18641C42.4944 8.12471 42.844 8.26868 42.9571 8.42294C43.9547 9.77012 44.9625 11.107 45.8777 12.5056C46.4125 13.3283 46.8135 14.2538 47.2352 15.1485C47.4306 15.5804 47.2969 15.8067 46.7724 15.7861Z" fill="url(#paint12_linear_407_14)"/>
<path d="M8.08486 7.72363C7.70436 7.41511 7.37528 7.1683 7.09761 6.87008C7.04619 6.81866 7.17988 6.48957 7.30329 6.38674C8.44479 5.49205 9.55544 4.55622 10.7689 3.76437C11.787 3.09593 12.9182 2.58174 14.0186 2.02642C14.1729 1.94415 14.3888 1.99556 14.5842 1.98528C14.5636 2.20124 14.6048 2.46862 14.5019 2.64344C14.358 2.87997 14.1111 3.06508 13.8952 3.25018C12.4143 4.48424 10.9335 5.72858 9.43203 6.94206C9.05153 7.24029 8.59904 7.43568 8.08486 7.72363Z" fill="url(#paint13_linear_407_14)"/>
<path d="M6.70688 9.02967C6.46007 9.51301 6.32638 9.94493 6.059 10.274C4.76324 11.8783 3.43664 13.462 2.09974 15.0457C1.92492 15.2514 1.69868 15.4159 1.47243 15.5599C1.3696 15.6216 1.14335 15.6319 1.06108 15.5599C0.989096 15.4982 0.978812 15.2616 1.04052 15.1485C1.45187 14.2641 1.8118 13.3489 2.33627 12.5364C3.24124 11.1481 4.23877 9.82152 5.21573 8.49491C5.36999 8.28924 5.8019 8.02186 5.86361 8.07328C6.1824 8.32009 6.41893 8.68002 6.70688 9.02967Z" fill="url(#paint14_linear_407_14)"/>
<defs>
<linearGradient id="paint0_linear_407_14" x1="9.59554" y1="32" x2="12.0487" y2="17.9917" gradientUnits="userSpaceOnUse">
<stop stop-color="#9D0F0F"/>
<stop offset="1" stop-color="#FF0B0B"/>
</linearGradient>
<linearGradient id="paint1_linear_407_14" x1="15.9483" y1="33.9221" x2="15.9483" y2="44.6174" gradientUnits="userSpaceOnUse">
<stop stop-color="#0093DD"/>
<stop offset="1" stop-color="#2B3D91"/>
</linearGradient>
<linearGradient id="paint2_linear_407_14" x1="32.4576" y1="34.105" x2="32.4576" y2="44.6783" gradientUnits="userSpaceOnUse">
<stop stop-color="#0093DD"/>
<stop offset="1" stop-color="#2B3D91"/>
</linearGradient>
<linearGradient id="paint3_linear_407_14" x1="24.2444" y1="41.9558" x2="24.2444" y2="48" gradientUnits="userSpaceOnUse">
<stop stop-color="#0093DD"/>
<stop offset="1" stop-color="#2B3D91"/>
</linearGradient>
<linearGradient id="paint4_linear_407_14" x1="10.9291" y1="40.1652" x2="10.9291" y2="45.9264" gradientUnits="userSpaceOnUse">
<stop stop-color="#0093DD"/>
<stop offset="1" stop-color="#2B3D91"/>
</linearGradient>
<linearGradient id="paint5_linear_407_14" x1="3.85632" y1="32.2094" x2="3.85632" y2="39.8051" gradientUnits="userSpaceOnUse">
<stop stop-color="#0093DD"/>
<stop offset="1" stop-color="#2B3D91"/>
</linearGradient>
<linearGradient id="paint6_linear_407_14" x1="37.4364" y1="40.2467" x2="37.4364" y2="45.9531" gradientUnits="userSpaceOnUse">
<stop stop-color="#0093DD"/>
<stop offset="1" stop-color="#2B3D91"/>
</linearGradient>
<linearGradient id="paint7_linear_407_14" x1="44.5225" y1="32.3903" x2="44.5225" y2="39.9377" gradientUnits="userSpaceOnUse">
<stop stop-color="#0093DD"/>
<stop offset="1" stop-color="#2B3D91"/>
</linearGradient>
<linearGradient id="paint8_linear_407_14" x1="24.1603" y1="0" x2="24.1603" y2="15.7874" gradientUnits="userSpaceOnUse">
<stop stop-color="#9D0F0F"/>
<stop offset="1" stop-color="#FF0B0B"/>
</linearGradient>
<linearGradient id="paint9_linear_407_14" x1="24.1603" y1="0" x2="24.1603" y2="15.7874" gradientUnits="userSpaceOnUse">
<stop stop-color="#9D0F0F"/>
<stop offset="1" stop-color="#FF0B0B"/>
</linearGradient>
<linearGradient id="paint10_linear_407_14" x1="24.1603" y1="0" x2="24.1603" y2="15.7874" gradientUnits="userSpaceOnUse">
<stop stop-color="#9D0F0F"/>
<stop offset="1" stop-color="#FF0B0B"/>
</linearGradient>
<linearGradient id="paint11_linear_407_14" x1="24.1603" y1="0" x2="24.1603" y2="15.7874" gradientUnits="userSpaceOnUse">
<stop stop-color="#9D0F0F"/>
<stop offset="1" stop-color="#FF0B0B"/>
</linearGradient>
<linearGradient id="paint12_linear_407_14" x1="24.1603" y1="0" x2="24.1603" y2="15.7874" gradientUnits="userSpaceOnUse">
<stop stop-color="#9D0F0F"/>
<stop offset="1" stop-color="#FF0B0B"/>
</linearGradient>
<linearGradient id="paint13_linear_407_14" x1="24.1603" y1="0" x2="24.1603" y2="15.7874" gradientUnits="userSpaceOnUse">
<stop stop-color="#9D0F0F"/>
<stop offset="1" stop-color="#FF0B0B"/>
</linearGradient>
<linearGradient id="paint14_linear_407_14" x1="24.1603" y1="0" x2="24.1603" y2="15.7874" gradientUnits="userSpaceOnUse">
<stop stop-color="#9D0F0F"/>
<stop offset="1" stop-color="#FF0B0B"/>
</linearGradient>
</defs>
</svg>
