<svg width="35" height="52" viewBox="0 0 35 52" fill="none" xmlns="http://www.w3.org/2000/svg">
<path d="M17.3014 0C7.7458 0 0 7.7615 0 17.3353C0 26.9096 11.5574 39.6021 17.3014 51.1803C23.291 39.6021 34.6031 26.9095 34.6031 17.3353C34.6031 7.7615 26.8572 0 17.3014 0ZM17.3014 27.2236C11.9265 27.2236 7.5693 22.8364 7.5693 17.4229C7.5693 12.0109 11.9265 7.62239 17.3014 7.62239C22.6763 7.62239 27.0337 12.0109 27.0337 17.4229C27.0337 22.8364 22.6763 27.2236 17.3014 27.2236ZM17.3014 13.068C14.9118 13.068 12.9755 15.0182 12.9755 17.4229C12.9755 19.8292 14.912 21.7794 17.3014 21.7794C19.6898 21.7794 21.6263 19.8292 21.6263 17.4229C21.6263 15.018 19.6898 13.068 17.3014 13.068Z" fill="#2B3D91"/>
</svg>
