<svg width="448" height="100" viewBox="0 0 448 100" fill="none" xmlns="http://www.w3.org/2000/svg">
<path d="M29.3407 70.6703C30.3048 71.0774 31.2046 71.2488 31.8045 71.7844C35.3823 74.8909 38.8959 78.0831 42.388 81.2753C42.9236 81.768 43.4806 82.3679 43.7163 83.0321C44.1234 84.1247 43.802 85.153 42.8379 85.8815C40.0314 88.0025 37.2034 90.1449 34.354 92.223C32.7686 93.3799 31.0332 93.0585 29.6621 91.9659C26.2128 89.2236 22.8278 86.3528 19.5285 83.3963C17.9431 81.9823 18.0716 80.4397 19.5927 78.9615C21.9708 76.6477 24.306 74.291 26.7484 72.0629C27.4982 71.4416 28.4837 71.1202 29.3407 70.6703Z" fill="url(#paint0_linear_18_174)"/>
<path d="M64.2409 93.0799C63.5125 92.7585 62.6984 92.5657 62.0557 92.0944C59.3562 90.1662 56.6996 88.1738 54.0859 86.1599C52.5005 84.9602 52.4362 83.0748 53.9145 81.7465C56.8496 79.0471 59.849 76.3905 62.8055 73.7339C63.384 73.2197 63.9624 72.6841 64.5409 72.1485C66.2119 70.6488 68.3972 70.6917 70.004 72.2556C72.4249 74.6123 74.8673 76.9475 77.3097 79.3042C78.3166 80.2897 78.5522 81.5323 77.6953 82.6678C76.9454 83.6533 76.0242 84.5102 75.0815 85.3244C72.6606 87.4239 70.1968 89.4806 67.7331 91.5374C66.7475 92.3515 65.6763 92.9942 64.2409 93.0799Z" fill="url(#paint1_linear_18_174)"/>
<path d="M47.4444 100C45.6234 99.8929 44.3379 99.7858 43.0525 99.7429C40.6101 99.6786 38.7677 98.2861 36.9466 96.9578C35.8754 96.1651 36.004 95.201 37.118 94.4297C40.0531 92.3516 42.9882 90.252 45.9662 88.2381C47.4659 87.2098 49.2012 87.1027 50.7223 88.1096C53.8503 90.1449 56.8925 92.3302 59.9561 94.494C60.9202 95.1796 60.856 96.3579 59.8276 97.0863C57.7923 98.5646 55.6499 99.7858 52.9933 99.7858C50.958 99.7858 48.9227 99.9357 47.4444 100Z" fill="url(#paint2_linear_18_174)"/>
<path d="M15.1787 83.6748C16.2713 84.339 17.2997 84.8103 18.1781 85.5173C20.5133 87.4026 22.7414 89.3736 25.0338 91.3018C25.8693 92.0088 26.7691 92.6515 27.6475 93.3585C27.926 93.5727 28.2688 93.8084 28.376 94.1084C28.5473 94.6011 28.5473 95.1367 28.633 95.6509C28.1831 95.6295 27.669 95.758 27.2619 95.5866C22.0558 93.3799 17.4282 90.2734 13.2077 86.5456C12.5864 85.9886 12.5649 85.5815 13.2291 85.1102C13.8075 84.6817 14.4288 84.2318 15.1787 83.6748Z" fill="url(#paint3_linear_18_174)"/>
<path d="M11.9011 80.4183C11.7511 81.1896 10.6371 82.8606 10.0158 82.9249C9.7587 82.9463 9.37306 82.6892 9.18024 82.4536C6.37368 79.3042 3.95275 75.8764 2.00316 72.1271C1.31758 70.8417 0.696285 69.5134 0.0964086 68.1851C-0.0321362 67.9066 -0.0321362 67.3067 0.0964086 67.2424C0.396347 67.0925 0.867678 67.0496 1.16762 67.1782C1.5961 67.371 2.00316 67.7352 2.3031 68.0994C5.06681 71.3559 7.83052 74.6123 10.53 77.9117C11.1084 78.6615 11.4512 79.5827 11.9011 80.4183Z" fill="url(#paint4_linear_18_174)"/>
<path d="M81.5932 83.8461C82.3645 84.4032 83.0715 84.8959 83.7142 85.4529C83.7999 85.5172 83.65 86.0528 83.4786 86.2242C79.1937 90.1662 74.3733 93.3156 69.0173 95.6294C68.7816 95.7365 68.3103 95.7794 68.246 95.6723C68.096 95.4366 68.0103 95.0081 68.1389 94.7939C68.4174 94.2797 68.7816 93.7655 69.2315 93.3799C72.4666 90.6376 75.723 87.9167 79.0224 85.2601C79.7079 84.7245 80.5863 84.3817 81.5932 83.8461Z" fill="url(#paint5_linear_18_174)"/>
<path d="M86.4782 83.2035C84.4001 81.7253 84.3358 80.2256 86.0497 78.2331C88.1493 75.8122 90.206 73.3698 92.2627 70.9061C92.9055 70.1348 93.4625 69.2993 94.0838 68.5494C94.6622 67.8638 95.2835 67.2211 96.5047 67.5853C93.9981 73.3913 90.8059 78.6188 86.4782 83.2035Z" fill="url(#paint6_linear_18_174)"/>
<path d="M64.164 6.70687C65.1924 7.19962 66.3064 7.47813 67.1206 8.14228C70.3342 10.7346 73.4621 13.4555 76.6115 16.1335C78.0897 17.3975 78.5611 19.5399 76.7614 21.1253C74.3619 23.2035 72.1981 25.5387 69.9271 27.7454C68.1489 29.4593 65.9422 29.5664 64.0783 27.8953C60.5434 24.7246 57.0512 21.5324 53.5805 18.2973C52.0165 16.8405 52.1022 15.0194 53.7733 13.7126C56.3657 11.7201 58.9794 9.72767 61.6574 7.82092C62.3216 7.30674 63.2214 7.0925 64.164 6.70687Z" fill="url(#paint7_linear_18_174)"/>
<path d="M28.8573 28.8594C27.6575 28.988 26.8006 28.1524 25.9436 27.3383C23.7798 25.2387 21.6159 23.0963 19.4735 20.9753C17.7167 19.2614 17.6953 17.5903 19.602 15.8764C22.2372 13.5412 24.9581 11.2916 27.6575 9.02066C28.793 8.05658 29.9285 6.96395 31.5139 6.9211C32.3923 6.89968 33.442 7.00679 34.1276 7.47813C37.0199 9.49199 39.8264 11.6344 42.6116 13.7768C44.047 14.8909 44.0684 16.6048 42.6758 17.9545C41.4118 19.1971 40.0193 20.3112 38.691 21.5109C36.6342 23.3748 34.5989 25.2816 32.5637 27.1669C31.2568 28.3881 30.2713 28.8594 28.8573 28.8594Z" fill="url(#paint8_linear_18_174)"/>
<path d="M47.7963 12.6413C46.7894 12.17 45.6325 11.8058 44.647 11.1416C41.9904 9.36343 39.3981 7.45668 36.7843 5.59278C35.456 4.65011 35.3917 3.55748 36.7415 2.61482C38.7339 1.20083 40.8121 -0.0417719 43.383 0.00107642C47.0893 0.0439247 50.7957 -0.0203477 54.4807 0.215318C56.5588 0.343863 58.2085 1.73643 59.7296 3.08615C60.5008 3.77172 60.3509 4.69296 59.5153 5.29284C56.4731 7.45668 53.4095 9.62052 50.3244 11.7201C49.6602 12.17 48.8033 12.2771 47.7963 12.6413Z" fill="url(#paint9_linear_18_174)"/>
<path d="M81.0464 16.0049C80.3179 15.6622 79.5038 15.4265 78.9039 14.9337C75.4332 12.1272 72.0268 9.27776 68.5989 6.42835C68.4275 6.29981 68.2133 6.14984 68.1704 5.97844C67.9991 5.39999 67.9134 4.80012 67.7848 4.22166C68.299 4.24309 68.8989 4.09312 69.3274 4.28594C74.2121 6.44977 78.6897 9.27776 82.696 12.8127C83.1459 13.1984 83.7887 14.0982 83.6815 14.2267C83.1674 14.848 82.4389 15.3194 81.7534 15.8121C81.6034 15.9192 81.3463 15.855 81.1321 15.855C81.0892 15.8978 81.0678 15.9407 81.0464 16.0049Z" fill="url(#paint10_linear_18_174)"/>
<path d="M95.3574 32.8871C95.1218 32.7158 94.5862 32.4801 94.2434 32.073C91.4154 28.7309 88.6302 25.3459 85.8451 21.9608C85.438 21.4681 85.1381 20.8896 84.9024 20.3112C84.4097 19.0686 84.9239 17.5903 86.1236 17.0547C86.445 16.9262 87.1734 17.2261 87.4091 17.5475C89.4872 20.354 91.5868 23.1392 93.4935 26.0529C94.6076 27.7668 95.4431 29.695 96.3215 31.5589C96.7286 32.4587 96.4501 32.93 95.3574 32.8871Z" fill="url(#paint11_linear_18_174)"/>
<path d="M14.7598 16.0906C13.9672 15.4479 13.2816 14.9337 12.7031 14.3124C12.596 14.2053 12.8745 13.5197 13.1316 13.3055C15.5097 11.4416 17.8235 9.49196 20.3515 7.8423C22.4725 6.44973 24.8292 5.37852 27.1216 4.22162C27.4429 4.05023 27.8928 4.15735 28.2999 4.13593C28.2571 4.58583 28.3427 5.14286 28.1285 5.50707C27.8286 5.99983 27.3144 6.38546 26.8645 6.77109C23.7794 9.34199 20.6943 11.9343 17.5664 14.4624C16.7737 15.0837 15.8311 15.4907 14.7598 16.0906Z" fill="url(#paint12_linear_18_174)"/>
<path d="M11.8891 18.8115C11.3749 19.8184 11.0964 20.7182 10.5394 21.4038C7.83995 24.746 5.07623 28.0453 2.29109 31.3446C1.92688 31.7731 1.45555 32.1159 0.984219 32.4158C0.769978 32.5443 0.298647 32.5658 0.127253 32.4158C-0.0227156 32.2872 -0.04414 31.7945 0.0844049 31.5588C0.941371 29.7163 1.69122 27.8096 2.78385 26.1171C4.66917 23.2248 6.74731 20.4611 8.78261 17.6974C9.10397 17.2689 10.0038 16.7119 10.1323 16.819C10.7965 17.3332 11.2892 18.083 11.8891 18.8115Z" fill="url(#paint13_linear_18_174)"/>
<path d="M10.808 59.0815C9.50133 59.0815 8.41867 58.6335 7.56 57.7375C6.70133 56.8228 5.94533 55.3201 5.292 53.2295L1.4 40.8535C1.32533 40.6295 1.288 40.3961 1.288 40.1535C1.288 39.3321 1.86667 38.9215 3.024 38.9215C3.60267 38.9215 4.04133 39.0335 4.34 39.2575C4.65733 39.4815 4.89067 39.8455 5.04 40.3495L8.904 52.9495C9.25867 54.0881 9.58533 54.9095 9.884 55.4135C10.1827 55.9175 10.4907 56.1695 10.808 56.1695C11.1253 56.1695 11.4333 55.9175 11.732 55.4135C12.0307 54.9095 12.3573 54.0881 12.712 52.9495L16.576 40.3495C16.7253 39.8455 16.9493 39.4815 17.248 39.2575C17.5653 39.0335 18.0133 38.9215 18.592 38.9215C19.7493 38.9215 20.328 39.3321 20.328 40.1535C20.328 40.3961 20.2907 40.6295 20.216 40.8535L16.324 53.2295C15.6707 55.3201 14.9147 56.8228 14.056 57.7375C13.1973 58.6335 12.1147 59.0815 10.808 59.0815ZM34.75 59.0815C32.9206 59.0815 31.2033 58.7828 29.598 58.1855C27.9926 57.5695 26.602 56.6921 25.426 55.5535C25.146 55.2735 25.006 54.9561 25.006 54.6015C25.006 54.1908 25.1926 53.7988 25.566 53.4255C25.8646 53.1268 26.1913 52.9775 26.546 52.9775C26.9193 52.9775 27.3673 53.1921 27.89 53.6215C28.7673 54.4241 29.8033 55.0495 30.998 55.4975C32.2113 55.9268 33.462 56.1415 34.75 56.1415C35.982 56.1415 36.9433 55.9361 37.634 55.5255C38.3246 55.0961 38.67 54.4988 38.67 53.7335C38.67 52.9308 38.2966 52.2868 37.55 51.8015C36.8033 51.2975 35.534 50.8495 33.742 50.4575C30.9233 49.8415 28.87 49.0295 27.582 48.0215C26.3126 47.0135 25.678 45.7161 25.678 44.1295C25.678 43.1215 26.014 42.2255 26.686 41.4415C27.358 40.6388 28.2913 40.0228 29.486 39.5935C30.6993 39.1455 32.0806 38.9215 33.63 38.9215C35.366 38.9215 36.906 39.2108 38.25 39.7895C39.6126 40.3495 40.6486 41.1428 41.358 42.1695C41.6006 42.5615 41.722 42.8975 41.722 43.1775C41.7033 43.6441 41.47 44.0455 41.022 44.3815C40.7793 44.5495 40.4993 44.6335 40.182 44.6335C39.6033 44.6335 39.1273 44.4095 38.754 43.9615C38.2126 43.3081 37.4846 42.7948 36.57 42.4215C35.674 42.0481 34.694 41.8615 33.63 41.8615C32.3046 41.8615 31.2686 42.0668 30.522 42.4775C29.794 42.8695 29.43 43.4201 29.43 44.1295C29.43 44.8388 29.7846 45.4268 30.494 45.8935C31.222 46.3415 32.4726 46.7708 34.246 47.1815C36.206 47.6481 37.7833 48.1801 38.978 48.7775C40.1726 49.3561 41.0406 50.0468 41.582 50.8495C42.142 51.6521 42.422 52.6135 42.422 53.7335C42.422 54.7975 42.1046 55.7401 41.47 56.5615C40.8353 57.3641 39.9393 57.9895 38.782 58.4375C37.6246 58.8668 36.2806 59.0815 34.75 59.0815ZM49.7822 59.0535C49.2222 59.0535 48.7742 58.9041 48.4382 58.6055C48.1022 58.3068 47.9342 57.8961 47.9342 57.3735V47.5735C47.9342 44.8668 48.7089 42.7481 50.2582 41.2175C51.8076 39.6868 53.9636 38.9215 56.7262 38.9215C58.5369 38.9215 60.1049 39.2668 61.4302 39.9575C62.7556 40.6481 63.7636 41.6468 64.4542 42.9535C65.1636 44.2601 65.5182 45.8001 65.5182 47.5735V57.3735C65.5182 57.8961 65.3502 58.3068 65.0142 58.6055C64.6782 58.9041 64.2302 59.0535 63.6702 59.0535C63.1102 59.0535 62.6529 58.9041 62.2982 58.6055C61.9622 58.2881 61.7942 57.8775 61.7942 57.3735V52.8095H51.6582V57.3735C51.6582 57.8775 51.4809 58.2881 51.1262 58.6055C50.7902 58.9041 50.3422 59.0535 49.7822 59.0535ZM61.7942 49.9255V47.4895C61.7942 45.6228 61.3649 44.2228 60.5062 43.2895C59.6662 42.3375 58.4062 41.8615 56.7262 41.8615C53.3476 41.8615 51.6582 43.7375 51.6582 47.4895V49.9255H61.7942ZM73.1754 59.0815C72.6154 59.0815 72.1674 58.9321 71.8314 58.6335C71.4954 58.3348 71.3274 57.9241 71.3274 57.4015V45.8655C71.3274 43.7001 71.9434 42.0015 73.1754 40.7695C74.4074 39.5375 76.106 38.9215 78.2714 38.9215C79.3167 38.9215 80.2967 39.1828 81.2114 39.7055C82.1447 40.2095 82.9474 40.9375 83.6194 41.8895C84.2727 40.9188 85.0567 40.1815 85.9714 39.6775C86.9047 39.1735 87.9127 38.9215 88.9954 38.9215C91.1607 38.9215 92.8594 39.5375 94.0914 40.7695C95.3234 42.0015 95.9394 43.7001 95.9394 45.8655V57.4015C95.9394 57.9055 95.762 58.3161 95.4074 58.6335C95.0714 58.9321 94.6234 59.0815 94.0634 59.0815C93.5034 59.0815 93.0554 58.9321 92.7194 58.6335C92.3834 58.3348 92.2154 57.9241 92.2154 57.4015V45.8655C92.2154 44.4468 91.954 43.4295 91.4314 42.8135C90.9087 42.1788 90.05 41.8615 88.8554 41.8615C87.7727 41.8615 86.9327 42.2068 86.3354 42.8975C85.7567 43.5881 85.4674 44.5775 85.4674 45.8655V57.4015C85.4674 57.9241 85.2994 58.3348 84.9634 58.6335C84.6274 58.9321 84.1794 59.0815 83.6194 59.0815C83.0594 59.0815 82.6114 58.9321 82.2754 58.6335C81.958 58.3348 81.7994 57.9241 81.7994 57.4015V45.8655C81.7994 44.6148 81.5007 43.6348 80.9034 42.9255C80.306 42.2161 79.4754 41.8615 78.4114 41.8615C77.2167 41.8615 76.358 42.1788 75.8354 42.8135C75.3127 43.4295 75.0514 44.4468 75.0514 45.8655V57.4015C75.0514 57.9055 74.874 58.3161 74.5194 58.6335C74.1834 58.9321 73.7354 59.0815 73.1754 59.0815Z" fill="url(#paint14_linear_18_174)"/>
<path d="M120.321 59.0815C119.761 59.0815 119.313 58.9321 118.977 58.6335C118.641 58.3348 118.473 57.9241 118.473 57.4015V42.0855H113.069C112.528 42.0855 112.099 41.9641 111.781 41.7215C111.483 41.4601 111.333 41.1055 111.333 40.6575C111.333 40.1908 111.483 39.8361 111.781 39.5935C112.08 39.3321 112.509 39.2015 113.069 39.2015H127.601C128.161 39.2015 128.591 39.3321 128.889 39.5935C129.188 39.8361 129.337 40.1908 129.337 40.6575C129.337 41.1055 129.179 41.4601 128.861 41.7215C128.563 41.9641 128.143 42.0855 127.601 42.0855H122.197V57.4015C122.197 57.9055 122.02 58.3161 121.665 58.6335C121.329 58.9321 120.881 59.0815 120.321 59.0815ZM138.922 58.8015C137.504 58.8015 136.402 58.4281 135.618 57.6815C134.834 56.9348 134.442 55.8895 134.442 54.5455V43.3455C134.442 42.0388 134.816 41.0215 135.562 40.2935C136.328 39.5655 137.382 39.2015 138.726 39.2015H147.434C147.994 39.2015 148.424 39.3321 148.722 39.5935C149.021 39.8361 149.17 40.1908 149.17 40.6575C149.17 41.1055 149.012 41.4601 148.694 41.7215C148.396 41.9641 147.976 42.0855 147.434 42.0855H139.37C138.997 42.0855 138.698 42.2068 138.474 42.4495C138.269 42.6921 138.166 43.0281 138.166 43.4575V47.3495H145.306C145.866 47.3495 146.296 47.4801 146.594 47.7415C146.893 47.9841 147.042 48.3388 147.042 48.8055C147.042 49.2535 146.884 49.6081 146.566 49.8695C146.268 50.1121 145.848 50.2335 145.306 50.2335H138.166V54.5455C138.166 54.9748 138.269 55.3108 138.474 55.5535C138.698 55.7961 138.997 55.9175 139.37 55.9175H148.05C148.61 55.9175 149.04 56.0481 149.338 56.3095C149.637 56.5521 149.786 56.9068 149.786 57.3735C149.786 57.8215 149.628 58.1761 149.31 58.4375C149.012 58.6801 148.592 58.8015 148.05 58.8015H138.922ZM164.191 59.0815C162.082 59.0815 160.253 58.6801 158.703 57.8775C157.154 57.0748 155.969 55.9175 155.147 54.4055C154.326 52.8935 153.915 51.1015 153.915 49.0295C153.915 46.9575 154.326 45.1655 155.147 43.6535C155.969 42.1228 157.145 40.9561 158.675 40.1535C160.225 39.3321 162.045 38.9215 164.135 38.9215C165.871 38.9215 167.477 39.2201 168.951 39.8175C170.426 40.4148 171.518 41.2081 172.227 42.1975C172.451 42.4961 172.563 42.8041 172.563 43.1215C172.563 43.5881 172.311 44.0081 171.807 44.3815C171.583 44.5495 171.303 44.6335 170.967 44.6335C170.687 44.6335 170.407 44.5775 170.127 44.4655C169.847 44.3348 169.614 44.1575 169.427 43.9335C168.793 43.2055 168.055 42.6828 167.215 42.3655C166.375 42.0295 165.349 41.8615 164.135 41.8615C162.101 41.8615 160.514 42.4961 159.375 43.7655C158.237 45.0161 157.667 46.7708 157.667 49.0295C157.667 51.2695 158.237 53.0148 159.375 54.2655C160.533 55.5161 162.138 56.1415 164.191 56.1415C166.543 56.1415 168.419 55.4508 169.819 54.0695C170.398 53.5281 170.93 53.2575 171.415 53.2575C171.751 53.2575 172.059 53.3695 172.339 53.5935C172.769 53.9668 172.983 54.3775 172.983 54.8255C172.983 55.1615 172.862 55.4881 172.619 55.8055C171.817 56.8321 170.669 57.6348 169.175 58.2135C167.701 58.7921 166.039 59.0815 164.191 59.0815ZM180.5 59.0815C179.94 59.0815 179.492 58.9321 179.156 58.6335C178.82 58.3348 178.652 57.9241 178.652 57.4015V40.6015C178.652 40.0788 178.82 39.6681 179.156 39.3695C179.492 39.0708 179.94 38.9215 180.5 38.9215C181.06 38.9215 181.508 39.0801 181.844 39.3975C182.198 39.6961 182.376 40.0975 182.376 40.6015V47.2935H192.428V40.6015C192.428 40.0975 192.596 39.6961 192.932 39.3975C193.286 39.0801 193.744 38.9215 194.304 38.9215C194.864 38.9215 195.312 39.0708 195.648 39.3695C195.984 39.6681 196.152 40.0788 196.152 40.6015V57.4015C196.152 57.9241 195.984 58.3348 195.648 58.6335C195.312 58.9321 194.864 59.0815 194.304 59.0815C193.744 59.0815 193.286 58.9321 192.932 58.6335C192.596 58.3161 192.428 57.9055 192.428 57.4015V50.1775H182.376V57.4015C182.376 57.9055 182.198 58.3161 181.844 58.6335C181.508 58.9321 181.06 59.0815 180.5 59.0815ZM203.804 59.0815C203.244 59.0815 202.796 58.9321 202.46 58.6335C202.124 58.3348 201.956 57.9241 201.956 57.4015V46.8455C201.956 44.3628 202.731 42.4215 204.28 41.0215C205.829 39.6215 207.976 38.9215 210.72 38.9215C213.464 38.9215 215.611 39.6215 217.16 41.0215C218.709 42.4215 219.484 44.3628 219.484 46.8455V57.4015C219.484 57.9241 219.316 58.3348 218.98 58.6335C218.644 58.9321 218.196 59.0815 217.636 59.0815C217.076 59.0815 216.619 58.9321 216.264 58.6335C215.928 58.3161 215.76 57.9055 215.76 57.4015V46.7615C215.76 45.1748 215.331 43.9615 214.472 43.1215C213.613 42.2815 212.363 41.8615 210.72 41.8615C209.077 41.8615 207.827 42.2815 206.968 43.1215C206.109 43.9615 205.68 45.1748 205.68 46.7615V57.4015C205.68 57.9055 205.503 58.3161 205.148 58.6335C204.812 58.9321 204.364 59.0815 203.804 59.0815ZM234.748 59.0815C232.564 59.0815 230.679 58.6615 229.092 57.8215C227.524 56.9628 226.33 55.7775 225.508 54.2655C224.687 52.7348 224.276 50.9801 224.276 49.0015C224.276 47.0228 224.687 45.2775 225.508 43.7655C226.33 42.2348 227.524 41.0495 229.092 40.2095C230.679 39.3508 232.564 38.9215 234.748 38.9215C236.932 38.9215 238.808 39.3508 240.376 40.2095C241.963 41.0495 243.167 42.2348 243.988 43.7655C244.81 45.2775 245.22 47.0228 245.22 49.0015C245.22 50.9801 244.81 52.7348 243.988 54.2655C243.167 55.7775 241.963 56.9628 240.376 57.8215C238.808 58.6615 236.932 59.0815 234.748 59.0815ZM234.748 56.1415C236.876 56.1415 238.528 55.5068 239.704 54.2375C240.88 52.9495 241.468 51.2041 241.468 49.0015C241.468 46.7801 240.852 45.0348 239.62 43.7655C238.407 42.4961 236.69 41.8615 234.468 41.8615C232.434 41.8615 230.847 42.5148 229.708 43.8215C228.588 45.1095 228.028 46.8361 228.028 49.0015C228.028 51.2041 228.616 52.9495 229.792 54.2375C230.968 55.5068 232.62 56.1415 234.748 56.1415ZM255.352 58.8015C253.933 58.8015 252.832 58.4281 252.048 57.6815C251.264 56.9348 250.872 55.8895 250.872 54.5455V40.6015C250.872 40.0788 251.04 39.6681 251.376 39.3695C251.712 39.0708 252.16 38.9215 252.72 38.9215C253.28 38.9215 253.728 39.0801 254.064 39.3975C254.419 39.6961 254.596 40.0975 254.596 40.6015V54.5455C254.596 54.9748 254.699 55.3108 254.904 55.5535C255.128 55.7961 255.427 55.9175 255.8 55.9175H264.76C265.32 55.9175 265.749 56.0481 266.048 56.3095C266.347 56.5521 266.496 56.9068 266.496 57.3735C266.496 57.8215 266.337 58.1761 266.02 58.4375C265.721 58.6801 265.301 58.8015 264.76 58.8015H255.352ZM279.669 59.0815C277.485 59.0815 275.599 58.6615 274.013 57.8215C272.445 56.9628 271.25 55.7775 270.429 54.2655C269.607 52.7348 269.197 50.9801 269.197 49.0015C269.197 47.0228 269.607 45.2775 270.429 43.7655C271.25 42.2348 272.445 41.0495 274.013 40.2095C275.599 39.3508 277.485 38.9215 279.669 38.9215C281.853 38.9215 283.729 39.3508 285.297 40.2095C286.883 41.0495 288.087 42.2348 288.909 43.7655C289.73 45.2775 290.141 47.0228 290.141 49.0015C290.141 50.9801 289.73 52.7348 288.909 54.2655C288.087 55.7775 286.883 56.9628 285.297 57.8215C283.729 58.6615 281.853 59.0815 279.669 59.0815ZM279.669 56.1415C281.797 56.1415 283.449 55.5068 284.625 54.2375C285.801 52.9495 286.389 51.2041 286.389 49.0015C286.389 46.7801 285.773 45.0348 284.541 43.7655C283.327 42.4961 281.61 41.8615 279.389 41.8615C277.354 41.8615 275.767 42.5148 274.629 43.8215C273.509 45.1095 272.949 46.8361 272.949 49.0015C272.949 51.2041 273.537 52.9495 274.713 54.2375C275.889 55.5068 277.541 56.1415 279.669 56.1415ZM305.788 59.0815C303.679 59.0815 301.85 58.6801 300.3 57.8775C298.751 57.0748 297.566 55.9175 296.744 54.4055C295.923 52.8935 295.512 51.1015 295.512 49.0295C295.512 46.9575 295.923 45.1655 296.744 43.6535C297.566 42.1228 298.742 40.9561 300.272 40.1535C301.822 39.3321 303.642 38.9215 305.732 38.9215C307.468 38.9215 309.074 39.2201 310.548 39.8175C312.023 40.4148 313.115 41.2081 313.824 42.1975C314.048 42.4961 314.16 42.8041 314.16 43.1215C314.16 43.5881 313.908 44.0081 313.404 44.3815C313.18 44.5495 312.9 44.6335 312.564 44.6335C312.284 44.6335 312.004 44.5775 311.724 44.4655C311.444 44.3348 311.211 44.1575 311.024 43.9335C310.39 43.2055 309.652 42.6828 308.812 42.3655C307.972 42.0295 306.946 41.8615 305.732 41.8615C303.698 41.8615 302.111 42.4961 300.972 43.7655C299.834 45.0161 299.264 46.7708 299.264 49.0295C299.264 51.2695 299.834 53.0148 300.972 54.2655C302.13 55.5161 303.735 56.1415 305.788 56.1415C307.487 56.1415 308.812 55.8148 309.764 55.1615C310.735 54.5081 311.22 53.6028 311.22 52.4455V51.8295C311.22 51.4375 311.127 51.1668 310.94 51.0175C310.772 50.8681 310.474 50.7935 310.044 50.7935H306.376C305.854 50.7935 305.443 50.6721 305.144 50.4295C304.846 50.1681 304.696 49.8135 304.696 49.3655C304.696 48.8988 304.836 48.5441 305.116 48.3015C305.415 48.0401 305.835 47.9095 306.376 47.9095H311.808C312.891 47.9095 313.684 48.1428 314.188 48.6095C314.692 49.0575 314.944 49.7761 314.944 50.7655V51.8575C314.944 53.2761 314.562 54.5361 313.796 55.6375C313.031 56.7201 311.948 57.5695 310.548 58.1855C309.167 58.7828 307.58 59.0815 305.788 59.0815ZM323.292 59.0815C322.732 59.0815 322.284 58.9321 321.948 58.6335C321.612 58.3348 321.444 57.9241 321.444 57.4015V40.6015C321.444 40.0788 321.612 39.6681 321.948 39.3695C322.284 39.0708 322.732 38.9215 323.292 38.9215C323.833 38.9215 324.281 39.0708 324.636 39.3695C324.991 39.6681 325.168 40.0788 325.168 40.6015V57.4015C325.168 57.9241 324.991 58.3348 324.636 58.6335C324.281 58.9321 323.833 59.0815 323.292 59.0815ZM336.415 58.8015C334.997 58.8015 333.895 58.4281 333.111 57.6815C332.327 56.9348 331.935 55.8895 331.935 54.5455V43.3455C331.935 42.0388 332.309 41.0215 333.055 40.2935C333.821 39.5655 334.875 39.2015 336.219 39.2015H344.927C345.487 39.2015 345.917 39.3321 346.215 39.5935C346.514 39.8361 346.663 40.1908 346.663 40.6575C346.663 41.1055 346.505 41.4601 346.187 41.7215C345.889 41.9641 345.469 42.0855 344.927 42.0855H336.863C336.49 42.0855 336.191 42.2068 335.967 42.4495C335.762 42.6921 335.659 43.0281 335.659 43.4575V47.3495H342.799C343.359 47.3495 343.789 47.4801 344.087 47.7415C344.386 47.9841 344.535 48.3388 344.535 48.8055C344.535 49.2535 344.377 49.6081 344.059 49.8695C343.761 50.1121 343.341 50.2335 342.799 50.2335H335.659V54.5455C335.659 54.9748 335.762 55.3108 335.967 55.5535C336.191 55.7961 336.49 55.9175 336.863 55.9175H345.543C346.103 55.9175 346.533 56.0481 346.831 56.3095C347.13 56.5521 347.279 56.9068 347.279 57.3735C347.279 57.8215 347.121 58.1761 346.803 58.4375C346.505 58.6801 346.085 58.8015 345.543 58.8015H336.415ZM362.41 59.0815C360.581 59.0815 358.863 58.7828 357.258 58.1855C355.653 57.5695 354.262 56.6921 353.086 55.5535C352.806 55.2735 352.666 54.9561 352.666 54.6015C352.666 54.1908 352.853 53.7988 353.226 53.4255C353.525 53.1268 353.851 52.9775 354.206 52.9775C354.579 52.9775 355.027 53.1921 355.55 53.6215C356.427 54.4241 357.463 55.0495 358.658 55.4975C359.871 55.9268 361.122 56.1415 362.41 56.1415C363.642 56.1415 364.603 55.9361 365.294 55.5255C365.985 55.0961 366.33 54.4988 366.33 53.7335C366.33 52.9308 365.957 52.2868 365.21 51.8015C364.463 51.2975 363.194 50.8495 361.402 50.4575C358.583 49.8415 356.53 49.0295 355.242 48.0215C353.973 47.0135 353.338 45.7161 353.338 44.1295C353.338 43.1215 353.674 42.2255 354.346 41.4415C355.018 40.6388 355.951 40.0228 357.146 39.5935C358.359 39.1455 359.741 38.9215 361.29 38.9215C363.026 38.9215 364.566 39.2108 365.91 39.7895C367.273 40.3495 368.309 41.1428 369.018 42.1695C369.261 42.5615 369.382 42.8975 369.382 43.1775C369.363 43.6441 369.13 44.0455 368.682 44.3815C368.439 44.5495 368.159 44.6335 367.842 44.6335C367.263 44.6335 366.787 44.4095 366.414 43.9615C365.873 43.3081 365.145 42.7948 364.23 42.4215C363.334 42.0481 362.354 41.8615 361.29 41.8615C359.965 41.8615 358.929 42.0668 358.182 42.4775C357.454 42.8695 357.09 43.4201 357.09 44.1295C357.09 44.8388 357.445 45.4268 358.154 45.8935C358.882 46.3415 360.133 46.7708 361.906 47.1815C363.866 47.6481 365.443 48.1801 366.638 48.7775C367.833 49.3561 368.701 50.0468 369.242 50.8495C369.802 51.6521 370.082 52.6135 370.082 53.7335C370.082 54.7975 369.765 55.7401 369.13 56.5615C368.495 57.3641 367.599 57.9895 366.442 58.4375C365.285 58.8668 363.941 59.0815 362.41 59.0815ZM390.507 58.8015C389.088 58.8015 387.987 58.4281 387.203 57.6815C386.419 56.9348 386.027 55.8895 386.027 54.5455V40.6015C386.027 40.0788 386.195 39.6681 386.531 39.3695C386.867 39.0708 387.315 38.9215 387.875 38.9215C388.435 38.9215 388.883 39.0801 389.219 39.3975C389.573 39.6961 389.751 40.0975 389.751 40.6015V54.5455C389.751 54.9748 389.853 55.3108 390.059 55.5535C390.283 55.7961 390.581 55.9175 390.955 55.9175H399.915C400.475 55.9175 400.904 56.0481 401.203 56.3095C401.501 56.5521 401.651 56.9068 401.651 57.3735C401.651 57.8215 401.492 58.1761 401.175 58.4375C400.876 58.6801 400.456 58.8015 399.915 58.8015H390.507ZM416.049 55.1895C416.347 55.4321 416.497 55.7308 416.497 56.0855C416.497 56.4401 416.366 56.8041 416.105 57.1775C415.694 57.7748 415.115 58.2415 414.369 58.5775C413.622 58.9135 412.782 59.0815 411.849 59.0815C410.355 59.0815 409.179 58.6801 408.321 57.8775C407.481 57.0561 407.061 55.9361 407.061 54.5175V47.9655H405.913C405.353 47.9655 404.905 47.8348 404.569 47.5735C404.233 47.3121 404.065 46.9668 404.065 46.5375C404.065 46.0895 404.223 45.7348 404.541 45.4735C404.877 45.2121 405.334 45.0815 405.913 45.0815H407.061V40.8535C407.061 40.3308 407.229 39.9201 407.565 39.6215C407.901 39.3228 408.349 39.1735 408.909 39.1735C409.487 39.1735 409.935 39.3228 410.253 39.6215C410.57 39.9201 410.729 40.3308 410.729 40.8535V45.0815H413.417C413.995 45.0815 414.443 45.2121 414.761 45.4735C415.097 45.7348 415.265 46.0895 415.265 46.5375C415.265 46.9668 415.097 47.3121 414.761 47.5735C414.443 47.8348 413.995 47.9655 413.417 47.9655H410.729V54.8255C410.729 55.2361 410.85 55.5628 411.093 55.8055C411.354 56.0481 411.699 56.1695 412.129 56.1695C412.465 56.1695 412.754 56.1228 412.997 56.0295C413.258 55.9175 413.519 55.7401 413.781 55.4975C414.266 55.0308 414.714 54.7975 415.125 54.7975C415.423 54.7975 415.731 54.9281 416.049 55.1895ZM427.8 59.0815C426.344 59.0815 425.047 58.8015 423.908 58.2415C422.788 57.6628 421.911 56.8321 421.276 55.7495C420.642 54.6668 420.324 53.3975 420.324 51.9415C420.324 50.4855 420.623 49.2255 421.22 48.1615C421.836 47.0788 422.714 46.2481 423.852 45.6695C424.991 45.0908 426.335 44.8015 427.884 44.8015C429.023 44.8015 429.984 44.9881 430.768 45.3615C431.552 45.7161 432.29 46.2575 432.98 46.9855L433.008 39.2295C433.008 38.7068 433.176 38.2961 433.512 37.9975C433.848 37.6988 434.296 37.5495 434.856 37.5495C435.416 37.5495 435.855 37.6988 436.172 37.9975C436.508 38.2775 436.676 38.6881 436.676 39.2295V57.4015C436.676 57.9428 436.508 58.3628 436.172 58.6615C435.855 58.9415 435.416 59.0815 434.856 59.0815C434.296 59.0815 433.848 58.9321 433.512 58.6335C433.176 58.3348 433.008 57.9241 433.008 57.4015V56.8415C431.758 58.3348 430.022 59.0815 427.8 59.0815ZM428.36 56.1695C429.816 56.1695 430.955 55.7961 431.776 55.0495C432.598 54.3028 433.008 53.2668 433.008 51.9415C433.008 50.6161 432.598 49.5801 431.776 48.8335C430.955 48.0868 429.816 47.7135 428.36 47.7135C426.998 47.7135 425.934 48.0868 425.168 48.8335C424.403 49.5801 424.02 50.6161 424.02 51.9415C424.02 53.2668 424.403 54.3028 425.168 55.0495C425.934 55.7961 426.998 56.1695 428.36 56.1695ZM444.153 58.8015C443.499 58.8015 442.958 58.5961 442.529 58.1855C442.099 57.7748 441.885 57.2801 441.885 56.7015C441.885 56.0855 442.099 55.5721 442.529 55.1615C442.958 54.7321 443.499 54.5175 444.153 54.5175C444.806 54.5175 445.338 54.7321 445.749 55.1615C446.178 55.5908 446.393 56.1041 446.393 56.7015C446.393 57.2801 446.178 57.7748 445.749 58.1855C445.338 58.5961 444.806 58.8015 444.153 58.8015Z" fill="url(#paint15_linear_18_174)"/>
<defs>
<linearGradient id="paint0_linear_18_174" x1="31.1417" y1="70.6703" x2="31.1417" y2="92.9518" gradientUnits="userSpaceOnUse">
<stop stop-color="#0093DD"/>
<stop offset="1" stop-color="#2B3D91"/>
</linearGradient>
<linearGradient id="paint1_linear_18_174" x1="65.5351" y1="71.0525" x2="65.5351" y2="93.0799" gradientUnits="userSpaceOnUse">
<stop stop-color="#0093DD"/>
<stop offset="1" stop-color="#2B3D91"/>
</linearGradient>
<linearGradient id="paint2_linear_18_174" x1="48.4249" y1="87.4081" x2="48.4249" y2="100" gradientUnits="userSpaceOnUse">
<stop stop-color="#0093DD"/>
<stop offset="1" stop-color="#2B3D91"/>
</linearGradient>
<linearGradient id="paint3_linear_18_174" x1="20.6847" y1="83.6748" x2="20.6847" y2="95.6772" gradientUnits="userSpaceOnUse">
<stop stop-color="#0093DD"/>
<stop offset="1" stop-color="#2B3D91"/>
</linearGradient>
<linearGradient id="paint4_linear_18_174" x1="5.95056" y1="67.1021" x2="5.95056" y2="82.9262" gradientUnits="userSpaceOnUse">
<stop stop-color="#0093DD"/>
<stop offset="1" stop-color="#2B3D91"/>
</linearGradient>
<linearGradient id="paint5_linear_18_174" x1="75.9076" y1="83.8461" x2="75.9076" y2="95.7343" gradientUnits="userSpaceOnUse">
<stop stop-color="#0093DD"/>
<stop offset="1" stop-color="#2B3D91"/>
</linearGradient>
<linearGradient id="paint6_linear_18_174" x1="90.6703" y1="67.4799" x2="90.6703" y2="83.2035" gradientUnits="userSpaceOnUse">
<stop stop-color="#0093DD"/>
<stop offset="1" stop-color="#2B3D91"/>
</linearGradient>
<linearGradient id="paint7_linear_18_174" x1="48.2498" y1="0" x2="48.2498" y2="32.8898" gradientUnits="userSpaceOnUse">
<stop stop-color="#9D0F0F"/>
<stop offset="1" stop-color="#FF0B0B"/>
</linearGradient>
<linearGradient id="paint8_linear_18_174" x1="48.2498" y1="0" x2="48.2498" y2="32.8898" gradientUnits="userSpaceOnUse">
<stop stop-color="#9D0F0F"/>
<stop offset="1" stop-color="#FF0B0B"/>
</linearGradient>
<linearGradient id="paint9_linear_18_174" x1="48.2498" y1="0" x2="48.2498" y2="32.8898" gradientUnits="userSpaceOnUse">
<stop stop-color="#9D0F0F"/>
<stop offset="1" stop-color="#FF0B0B"/>
</linearGradient>
<linearGradient id="paint10_linear_18_174" x1="48.2498" y1="0" x2="48.2498" y2="32.8898" gradientUnits="userSpaceOnUse">
<stop stop-color="#9D0F0F"/>
<stop offset="1" stop-color="#FF0B0B"/>
</linearGradient>
<linearGradient id="paint11_linear_18_174" x1="48.2498" y1="0" x2="48.2498" y2="32.8898" gradientUnits="userSpaceOnUse">
<stop stop-color="#9D0F0F"/>
<stop offset="1" stop-color="#FF0B0B"/>
</linearGradient>
<linearGradient id="paint12_linear_18_174" x1="48.2498" y1="0" x2="48.2498" y2="32.8898" gradientUnits="userSpaceOnUse">
<stop stop-color="#9D0F0F"/>
<stop offset="1" stop-color="#FF0B0B"/>
</linearGradient>
<linearGradient id="paint13_linear_18_174" x1="48.2498" y1="0" x2="48.2498" y2="32.8898" gradientUnits="userSpaceOnUse">
<stop stop-color="#9D0F0F"/>
<stop offset="1" stop-color="#FF0B0B"/>
</linearGradient>
<linearGradient id="paint14_linear_18_174" x1="70.3524" y1="66.8015" x2="71.5508" y2="34.3605" gradientUnits="userSpaceOnUse">
<stop stop-color="#9D0F0F"/>
<stop offset="1" stop-color="#FF0B0B"/>
</linearGradient>
<linearGradient id="paint15_linear_18_174" x1="258.728" y1="35.4168" x2="258.395" y2="59.2365" gradientUnits="userSpaceOnUse">
<stop offset="0.0210919" stop-color="#0093DD"/>
<stop offset="1" stop-color="#2B3D91"/>
</linearGradient>
</defs>
</svg>
