<svg width="50" height="50" viewBox="0 0 50 50" fill="none" xmlns="http://www.w3.org/2000/svg">
<g clip-path="url(#clip0_1_772)">
<path d="M13.7698 20.4476C15.4503 23.479 17.3871 26.3883 19.9018 29.0413C22.4246 31.7106 25.5618 34.1398 29.6227 36.215C29.9238 36.3615 30.2086 36.3615 30.4649 36.2597C30.8515 36.1133 31.2462 35.7918 31.6327 35.4052C31.9338 35.1041 32.3082 34.624 32.6988 34.0991C34.2613 32.0442 36.1941 29.493 38.9244 30.7706C38.9854 30.7991 39.0302 30.8317 39.0912 30.8561L48.1977 36.0929C48.2262 36.1092 48.2587 36.1377 48.2831 36.1539C49.4835 36.98 49.9799 38.2536 49.9921 39.6981C49.9921 41.167 49.4509 42.819 48.6575 44.2147C47.6077 46.0579 46.0615 47.2786 44.2792 48.0843C42.5825 48.8655 40.6944 49.2846 38.8797 49.5532C36.0313 49.9723 33.3621 49.7037 30.6318 48.8655C27.9625 48.0395 25.2729 46.6764 22.3351 44.8616L22.1194 44.7233C20.7726 43.881 19.3158 42.9817 17.8876 41.9197C12.663 37.9728 7.33668 32.2721 3.86581 25.9977C0.956472 20.7324 -0.630442 15.048 0.236258 9.63214C0.716401 6.66176 1.99 3.95994 4.21168 2.17771C6.14853 0.615211 8.75677 -0.239281 12.134 0.0618254C12.5206 0.0903085 12.8665 0.314104 13.0496 0.647763L18.8886 10.5192C19.7431 11.626 19.8489 12.7246 19.381 13.8232C18.9944 14.7225 18.2131 15.5525 17.1471 16.3257C16.8338 16.5942 16.4594 16.8668 16.0647 17.1517C14.7586 18.0997 13.2734 19.1943 13.782 20.4801L13.7698 20.4476Z" fill="#2B3D91"/>
</g>
<defs>
<clipPath id="clip0_1_772">
<rect width="50" height="49.7518" fill="white"/>
</clipPath>
</defs>
</svg>
